<?xml version="1.0" encoding="utf-8"?>
<!-- Generator: Adobe Illustrator 23.0.0, SVG Export Plug-In . SVG Version: 6.00 Build 0)  -->
<svg version="1.1" id="Layer_1" xmlns="http://www.w3.org/2000/svg" xmlns:xlink="http://www.w3.org/1999/xlink" x="0px" y="0px"
	 viewBox="0 0 160 80" style="enable-background:new 0 0 160 80;" xml:space="preserve">
<style type="text/css">
	.st0{fill:#4267B2;}
	.st1{fill:#BE1E2D;}
	.st2{fill:#FFFFFF;}
	.st3{fill-rule:evenodd;clip-rule:evenodd;fill:#4267B2;}
</style>
<g>
	<g>
		<path class="st0" d="M38.66,46.3c0-3.16-0.09-5.23-0.18-7.08h5.76l0.22,3.96h0.18c1.1-3.12,3.74-4.44,5.8-4.44
			c0.62,0,0.92,0,1.41,0.09v6.29c-0.48-0.09-1.05-0.18-1.8-0.18c-2.46,0-4.13,1.32-4.57,3.38c-0.09,0.44-0.13,0.97-0.13,1.49v10.9
			h-6.68V46.3z"/>
		<path class="st0" d="M62.26,33.25c0,1.85-1.41,3.34-3.6,3.34c-2.11,0-3.52-1.49-3.47-3.34c-0.04-1.93,1.36-3.38,3.52-3.38
			C60.86,29.87,62.22,31.32,62.26,33.25z M55.36,60.72V39.23h6.68v21.49H55.36z"/>
		<path class="st0" d="M67.4,46.44c0-2.81-0.09-5.23-0.18-7.21h5.8l0.31,2.99h0.09c1.58-2.29,4.04-3.47,7.16-3.47
			c4.7,0,8.92,4.09,8.92,10.94c0,7.82-4.97,11.52-9.76,11.52c-2.59,0-4.62-1.05-5.58-2.46h-0.09v10.68H67.4V46.44z M74.08,51.49
			c0,0.53,0.04,1.01,0.13,1.41c0.44,1.8,1.98,3.16,3.91,3.16c2.9,0,4.62-2.42,4.62-6.07c0-3.43-1.54-6.02-4.53-6.02
			c-1.89,0-3.56,1.41-4,3.38c-0.09,0.35-0.13,0.79-0.13,1.19V51.49z"/>
		<g>
			<path class="st0" d="M6,47.08c0,0-0.17,0.83,1.1,0.27C8.36,46.78,42.53,30.6,42.53,30.6s-1.83-1.66-6.29,0.28
				s-6.19,2.46-8.42,2.16c-2.22-0.3-11.66-9.34-12.26-9.44c-0.6-0.1-2.05,0.15-2.05,0.15s6.98,8.48,8.24,10.31
				c1.27,1.83,1.63,3.16,1.63,3.16l-12.29,6.33c0,0-1.03,0.47-2.4-0.77c-1.37-1.23-2.83-2.06-3.76-2S4,40.85,4,40.85l3.46,4.56
				c0,0,0.4,0.4-0.07,0.67C6.93,46.35,6,47.08,6,47.08z"/>
			<path class="st0" d="M30,37.53l-8.72,4.15l-0.69,1.44v1.04h2.86v8.79c0,3.03,0.62,5.1,1.85,6.37c1.05,1.1,2.86,1.85,5.01,1.85
				c1.89,0,3.47-0.22,4.35-0.57l-0.04-5.05c-0.48,0.09-1.14,0.18-1.98,0.18c-2.02,0-2.64-1.19-2.64-3.78v-7.78h4.79v-4.92H30V37.53z
				"/>
		</g>
		<g>
			<path class="st0" d="M107.62,60.79l-0.39-2.14h-0.13c-1.39,1.7-3.57,2.62-6.1,2.62c-4.31,0-6.89-3.14-6.89-6.54
				c0-5.53,4.97-8.19,12.51-8.15v-0.3c0-1.13-0.61-2.75-3.88-2.75c-2.18,0-4.49,0.74-5.88,1.61l-1.22-4.27
				c1.48-0.83,4.4-1.87,8.28-1.87c7.1,0,9.37,4.18,9.37,9.19v7.41c0,2.05,0.09,4.01,0.31,5.19H107.62z M106.84,50.72
				c-3.49-0.04-6.19,0.78-6.19,3.36c0,1.7,1.13,2.53,2.61,2.53c1.66,0,3.01-1.09,3.44-2.44c0.09-0.35,0.13-0.74,0.13-1.13V50.72z"/>
			<path class="st0" d="M118.52,46.5c0-3.14-0.09-5.19-0.17-7.02h5.71l0.22,3.92h0.17c1.09-3.09,3.7-4.4,5.75-4.4
				c0.61,0,0.92,0,1.39,0.09v6.23c-0.48-0.09-1.05-0.17-1.79-0.17c-2.44,0-4.1,1.31-4.53,3.36c-0.09,0.44-0.13,0.96-0.13,1.48v10.81
				h-6.62V46.5z"/>
			<path class="st0" d="M140.83,39.48l3.18,10.46c0.35,1.26,0.78,2.83,1.05,3.97h0.13c0.3-1.13,0.65-2.75,0.96-3.97l2.61-10.46h7.1
				l-4.97,14.03c-3.05,8.45-5.1,11.85-7.5,13.99c-2.31,2-4.75,2.7-6.41,2.92l-1.39-5.62c0.83-0.13,1.87-0.52,2.88-1.13
				c1-0.52,2.09-1.57,2.75-2.66c0.22-0.3,0.35-0.65,0.35-0.96c0-0.22-0.04-0.57-0.3-1.09l-7.8-19.48H140.83z"/>
		</g>
		<path class="st1" d="M142.94,77.11c-0.29-0.14-0.61-0.23-0.85-0.42c-6.47-5.04-13.91-6.39-21.8-5.36
			c-5.58,0.73-11.12,1.84-16.61,3.1c-6.45,1.48-12.82,3.32-19.46,3.86c-10.35,0.85-19.24-2.41-26.85-9.36
			c-1.32-1.21-2.56-2.5-3.84-3.75c0.08-0.11,0.15-0.21,0.23-0.32c0.42,0.27,0.87,0.5,1.25,0.82c4.18,3.43,8.67,6.31,13.91,7.82
			c5.28,1.52,10.69,1.62,16.04,0.6c5.06-0.96,10.07-2.18,15.06-3.44c7.72-1.96,15.5-3.22,23.52-2.92c7.7,0.3,13.83,3.75,19.3,8.81
			c0.11,0.1,0.18,0.24,0.27,0.37C143.05,76.98,142.99,77.04,142.94,77.11z"/>
	</g>
	<g>
		<g>
			<path class="st3" d="M124.98,1.29c16.59,0,30.05,13.45,30.05,30.05c0,2.07-0.21,4.1-0.61,6.05c0.13-1.14,0.21-2.31,0.21-3.49
				c0-16.37-13.27-29.64-29.64-29.64S95.33,17.52,95.33,33.89c0,1.18,0.07,2.34,0.21,3.49c-0.4-1.95-0.61-3.98-0.61-6.05
				C94.93,14.74,108.38,1.29,124.98,1.29"/>
			<path class="st3" d="M124.98,6.72c14.17,0,25.65,11.48,25.65,25.65c0,1.77-0.18,3.5-0.52,5.16c0.11-0.98,0.18-1.97,0.18-2.98
				c0-13.97-11.33-25.3-25.3-25.3c-13.97,0-25.3,11.33-25.3,25.3c0,1.01,0.06,2,0.18,2.98c-0.34-1.67-0.52-3.4-0.52-5.16
				C99.33,18.2,110.81,6.72,124.98,6.72"/>
		</g>
	</g>
	<g>
		<path class="st1" d="M129.12,33.98c-0.64,0.53-1.33,0.74-2.08,0.64s-1.36-0.52-1.85-1.25c-0.49-0.73-0.66-1.76-0.53-3.08
			c0.25-1.86,0.62-3.74,1.13-5.64c0.5-1.9,0.9-3.25,1.18-4.02c-0.2,0.35-0.63,1.11-1.27,2.26c-0.64,1.15-1.27,2.35-1.88,3.57
			s-0.99,2.14-1.13,2.72c-0.04,0.12-0.17,0.21-0.41,0.25c-0.24,0.04-0.51,0.03-0.82-0.04s-0.58-0.19-0.82-0.38
			c-0.24-0.19-0.37-0.45-0.4-0.79c-0.01-0.5,0.1-1.3,0.33-2.41c0.23-1.11,0.48-2.23,0.76-3.34s0.48-1.9,0.61-2.38
			c-1.28,2.08-2.41,4.23-3.39,6.45c-0.98,2.22-1.75,4.18-2.33,5.88c-0.09,0.2-0.29,0.31-0.62,0.31c-0.32,0-0.67-0.08-1.04-0.24
			s-0.67-0.38-0.88-0.68c-0.22-0.29-0.26-0.64-0.13-1.03l0.01-0.03c0.05-0.13,0.25-0.61,0.58-1.45c0.34-0.83,0.73-1.87,1.19-3.12
			c0.46-1.25,0.91-2.55,1.35-3.92c0.44-1.37,0.79-2.65,1.06-3.86c0.27-1.21,0.38-2.19,0.34-2.94c-0.04-0.75-0.32-1.13-0.84-1.14
			c-0.65,0.04-1.33,0.48-2.07,1.31c-0.73,0.83-1.42,1.85-2.05,3.08c-0.63,1.22-1.11,2.46-1.43,3.71s-0.38,2.32-0.19,3.21
			c0.12,0.45,0.37,0.75,0.78,0.89c0.4,0.14,0.84,0.07,1.32-0.23c-0.14,0.41-0.49,0.7-1.03,0.89c-0.55,0.19-1.14,0.21-1.76,0.06
			c-0.63-0.15-1.13-0.52-1.5-1.12s-0.46-1.49-0.26-2.67c0.31-1.57,0.88-3.16,1.7-4.77c0.82-1.6,1.82-2.95,2.98-4.03
			s2.43-1.64,3.79-1.68c1.11,0.04,1.85,0.44,2.24,1.21c0.38,0.77,0.53,1.72,0.44,2.84c-0.09,1.13-0.28,2.25-0.58,3.36
			c-0.3,1.11-0.58,2.02-0.85,2.74c0.65-1.26,1.49-2.78,2.52-4.59s1.85-3.09,2.44-3.87c0.22-0.23,0.54-0.25,0.96-0.07
			c0.42,0.18,0.78,0.44,1.09,0.78s0.4,0.65,0.29,0.92c-0.73,1.33-1.32,2.75-1.75,4.28c-0.43,1.52-0.74,2.72-0.92,3.57
			c-0.04,0.22-0.08,0.39-0.12,0.52c0.24-0.5,0.81-1.55,1.7-3.18s1.85-3.26,2.87-4.9c1.01-1.64,1.8-2.75,2.37-3.33
			c0.19-0.14,0.48-0.13,0.86,0.03c0.38,0.16,0.7,0.38,0.97,0.66c0.27,0.28,0.36,0.54,0.25,0.78c-0.42,0.75-0.96,1.9-1.6,3.44
			c-0.64,1.54-1.26,3.24-1.86,5.09c-0.6,1.86-1.06,3.63-1.39,5.3c-0.32,1.68-0.38,3.04-0.16,4.06S128.12,34.09,129.12,33.98z"/>
		<path class="st1" d="M140.93,23.91c0.23-0.11,0.38-0.07,0.46,0.12c0.08,0.19,0.07,0.42-0.03,0.72c-0.1,0.29-0.29,0.55-0.58,0.77
			c-1.33,0.79-2.51,1.62-3.55,2.51c-0.23,0.19-0.41,0.41-0.54,0.68c-0.45,0.97-1.01,2.03-1.68,3.18c-0.67,1.15-1.4,2.18-2.2,3.12
			c-0.79,0.93-1.59,1.57-2.39,1.9c-0.33,0.11-0.75,0.06-1.28-0.15c-0.53-0.2-0.94-0.54-1.23-0.99c-0.3-0.46-0.25-1.02,0.13-1.68
			c0.54-0.82,1.26-1.65,2.17-2.49c0.91-0.84,1.77-1.6,2.59-2.27c0.97-0.8,1.56-1.33,1.75-1.62c0.19-0.38,0.39-0.88,0.62-1.49
			c0.23-0.61,0.42-1.12,0.56-1.52c-0.56,0.88-1.2,1.74-1.93,2.57s-1.41,1.46-2.05,1.9c-0.26,0.15-0.61,0.17-1.03,0.05
			c-0.42-0.12-0.8-0.32-1.11-0.61c-0.32-0.29-0.46-0.6-0.41-0.93c0.19-0.95,0.54-2.02,1.05-3.22c0.51-1.2,1.11-2.23,1.8-3.08
			c0.18-0.17,0.45-0.2,0.83-0.1c0.38,0.1,0.69,0.27,0.96,0.5c0.26,0.23,0.3,0.47,0.13,0.71c-0.22,0.26-0.48,0.63-0.77,1.13
			s-0.56,1.02-0.82,1.55c-0.25,0.53-0.43,0.98-0.53,1.35c-0.1,0.36-0.07,0.53,0.09,0.52c0.34-0.13,0.9-0.72,1.66-1.76
			c0.76-1.04,1.51-2.13,2.24-3.27s1.22-1.93,1.48-2.36c0.15-0.2,0.4-0.27,0.76-0.19c0.36,0.08,0.69,0.22,0.99,0.44
			c0.3,0.22,0.44,0.44,0.42,0.66c-0.11,0.55-0.27,1.2-0.49,1.95c-0.22,0.75-0.44,1.47-0.65,2.15c-0.15,0.49-0.27,0.9-0.37,1.23
			c0.63-0.44,1.17-0.81,1.62-1.11C140.02,24.46,140.47,24.18,140.93,23.91z M129.26,35.33c0.58-0.44,1.18-1.03,1.8-1.78
			c0.62-0.74,1.15-1.49,1.6-2.24c-0.68,0.65-1.4,1.37-2.15,2.18C129.77,34.3,129.35,34.91,129.26,35.33z"/>
	</g>
</g>
</svg>
